<?xml version="1.0" standalone="no"?>
<!DOCTYPE svg PUBLIC "-//W3C//DTD SVG 20010904//EN"
 "http://www.w3.org/TR/2001/REC-SVG-20010904/DTD/svg10.dtd">
<svg version="1.0" xmlns="http://www.w3.org/2000/svg"
 width="512.000000pt" height="512.000000pt" viewBox="0 0 512.000000 512.000000"
 preserveAspectRatio="xMidYMid meet">

<g transform="translate(0.000000,512.000000) scale(0.100000,-0.100000)"
fill="#000000" stroke="none">
<path d="M2057 1270 c-207 -35 -362 -238 -344 -449 18 -211 177 -370 388 -388
269 -23 491 217 449 484 -27 174 -157 312 -326 348 -76 16 -96 17 -167 5z
m149 -344 c70 -70 26 -175 -74 -176 -109 0 -143 145 -47 198 40 22 85 14 121
-22z"/>
<path d="M3790 1274 c-108 -19 -183 -56 -253 -127 -86 -88 -122 -188 -115
-321 4 -72 10 -96 41 -160 155 -312 599 -312 754 0 31 64 37 88 41 160 7 133
-29 232 -116 322 -50 51 -109 88 -175 108 -44 14 -141 24 -177 18z m101 -330
c37 -19 61 -71 53 -114 -9 -43 -56 -80 -104 -80 -104 0 -145 137 -56 191 38
23 67 24 107 3z"/>
</g>
</svg>
